Coordinates
version=1
nRows=23
nColumns=38
inDegrees=no

Units are S.I. units (second, meters, Newtons, ...)
If the header above contains a line with 'inDegrees', this indicates whether rotational values are in degrees (yes) or radians (no).

endheader
time	pelvis_tilt	pelvis_list	pelvis_rotation	pelvis_tx	pelvis_ty	pelvis_tz	hip_flexion_r	hip_adduction_r	hip_rotation_r	knee_angle_r	ankle_angle_r	subtalar_angle_r	mtp_angle_r	hip_flexion_l	hip_adduction_l	hip_rotation_l	knee_angle_l	ankle_angle_l	subtalar_angle_l	mtp_angle_l	lumbar_extension	lumbar_bending	lumbar_rotation	arm_flex_r	arm_add_r	arm_rot_r	elbow_flex_r	pro_sup_r	wrist_flex_r	wrist_dev_r	arm_flex_l	arm_add_l	arm_rot_l	elbow_flex_l	pro_sup_l	wrist_flex_l	wrist_dev_l
1.19	0.0678594	0.0676991	-0.0506783	0.934742	1.00588	-0.279978	0.407084	-0.228588	-0.112241	1.08967	-0.0104896	0	0	-0.0145312	0.14488	-0.0129039	0.207919	0.174144	0	0	-0.166787	-0.0563103	-0.00872781	-0.0455874	-0.161837	-0.366445	0.776004	0.239357	0	0	0.0592908	-0.208389	-0.0805174	0.907122	0.223103	0	0
1.2	0.0725019	0.0601341	-0.0454647	0.945923	1.00673	-0.280443	0.409221	-0.217451	-0.125523	1.04386	0.00116271	0	0	-0.0413699	0.138224	-0.00260865	0.192476	0.17755	0	0	-0.175173	-0.0471132	-0.016394	-0.0508747	-0.160044	-0.375648	0.777544	0.241489	0	0	0.068328	-0.214629	-0.0635612	0.932045	0.22557	0	0
1.21	0.0746027	0.0527898	-0.0391889	0.95684	1.00714	-0.281006	0.412817	-0.207694	-0.142003	0.994823	0.00978985	0	0	-0.0634147	0.131204	0.0075885	0.180319	0.182005	0	0	-0.181081	-0.0378418	-0.0250853	-0.0551319	-0.158632	-0.385144	0.777899	0.218744	0	0	0.0786926	-0.218264	-0.0569933	0.952863	0.206405	0	0
1.22	0.0786708	0.0422255	-0.0314114	0.968026	1.00764	-0.281501	0.409565	-0.195454	-0.164274	0.93929	0.0162014	0	0	-0.0888167	0.120191	0.0201878	0.166752	0.187656	0	0	-0.188819	-0.0250095	-0.0343133	-0.0601858	-0.157121	-0.391646	0.778578	0.23973	0	0	0.0886411	-0.22093	-0.0482322	0.971396	0.232625	0	0
1.23	0.0804498	0.0401391	-0.025263	0.979089	1.00741	-0.281852	0.41132	-0.191686	-0.18251	0.885378	0.0244667	0	0	-0.109398	0.117814	0.0269957	0.156411	0.19333	0	0	-0.193738	-0.0219743	-0.0437602	-0.0640242	-0.154076	-0.399105	0.778375	0.241604	0	0	0.097678	-0.226333	-0.0405133	0.992445	0.22726	0	0
1.24	0.0830907	0.0328163	-0.0193118	0.990523	1.00725	-0.282059	0.40717	-0.182023	-0.206829	0.823347	0.028474	0	0	-0.133392	0.109631	0.0371902	0.14254	0.198851	0	0	-0.19908	-0.0130974	-0.0516898	-0.0682816	-0.152228	-0.405787	0.778126	0.23816	0	0	0.105006	-0.230334	-0.030986	1.01424	0.253394	0	0
1.25	0.0847977	0.0308703	-0.013776	1.00176	1.00668	-0.282259	0.404795	-0.177015	-0.228284	0.760906	0.0356744	0	0	-0.153914	0.106846	0.0423385	0.132214	0.205418	0	0	-0.203391	-0.0103148	-0.0610953	-0.070764	-0.149042	-0.413101	0.775912	0.240127	0	0	0.112782	-0.235246	-0.0247435	1.03423	0.248193	0	0
1.26	0.08523	0.0263139	-0.00911852	1.01317	1.00589	-0.282285	0.401512	-0.167432	-0.249936	0.694486	0.0396908	0	0	-0.173607	0.101163	0.0482623	0.121241	0.211832	0	0	-0.20616	-0.00464585	-0.0688967	-0.0734365	-0.146706	-0.420101	0.773842	0.233062	0	0	0.119582	-0.239449	-0.0187418	1.05308	0.229856	0	0
1.27	0.0828009	0.0203917	-0.00581596	1.0248	1.0047	-0.282048	0.399744	-0.154391	-0.271192	0.624371	0.0410605	0	0	-0.190861	0.094046	0.0555124	0.109196	0.217443	0	0	-0.205202	0.00226307	-0.0742902	-0.0771077	-0.144666	-0.426361	0.772242	0.2255	0	0	0.12503	-0.243362	-0.00884419	1.07197	0.247057	0	0
1.28	0.0810158	0.0172607	-0.0021004	1.0362	1.00331	-0.281831	0.397846	-0.143217	-0.289423	0.554711	0.0424423	0	0	-0.205681	0.0896077	0.0588858	0.102435	0.225603	0	0	-0.205318	0.00603804	-0.0808321	-0.078649	-0.141692	-0.432932	0.768572	0.227564	0	0	0.131658	-0.246168	-0.00587713	1.08929	0.2419	0	0
1.29	0.0784052	0.0125367	0.000666849	1.04784	1.00168	-0.281414	0.3954	-0.128413	-0.30556	0.48301	0.0410946	0	0	-0.21944	0.0834049	0.0616923	0.0966271	0.235027	0	0	-0.204032	0.0114045	-0.0858502	-0.0806169	-0.139275	-0.439225	0.764722	0.228284	0	0	0.136974	-0.249263	-0.000966957	1.10673	0.231021	0	0
1.3	0.0736858	0.00893766	0.00178111	1.05951	0.999673	-0.280747	0.396017	-0.112379	-0.314269	0.413047	0.0411698	0	0	-0.230118	0.078599	0.0634802	0.0925592	0.24487	0	0	-0.200328	0.0152388	-0.088392	-0.0837887	-0.136745	-0.445372	0.761666	0.229116	0	0	0.142214	-0.253506	0.010128	1.12206	0.241418	0	0
1.31	0.0738008	0.00260572	0.0022652	1.07149	0.998015	-0.279818	0.389109	-0.0913649	-0.317143	0.341819	0.0430827	0	0	-0.245758	0.0706132	0.0607502	0.0897799	0.256593	0	0	-0.201422	0.0217452	-0.0909277	-0.0842987	-0.134052	-0.452814	0.755865	0.232396	0	0	0.14699	-0.255165	0.0129209	1.13584	0.233495	0	0
1.32	0.0720681	-0.00214918	0.00150735	1.08349	0.995995	-0.278815	0.384665	-0.0711363	-0.312253	0.27394	0.0474368	0	0	-0.259158	0.0647462	0.0582195	0.0873807	0.266799	0	0	-0.200078	0.0263916	-0.0926525	-0.0847775	-0.131645	-0.457573	0.750073	0.241755	0	0	0.151307	-0.25645	0.0167789	1.14796	0.239652	0	0
1.33	0.0707528	-0.00805408	-0.000163572	1.09571	0.993919	-0.277609	0.377225	-0.0480002	-0.294965	0.205428	0.0523962	0	0	-0.27355	0.0577664	0.0551768	0.0844544	0.275907	0	0	-0.199285	0.0321488	-0.091761	-0.0861504	-0.129504	-0.465251	0.745823	0.231153	0	0	0.156347	-0.257065	0.0210094	1.15883	0.213882	0	0
1.34	0.0675774	-0.0104775	-0.000478522	1.10782	0.991607	-0.2767	0.3741	-0.0316857	-0.276249	0.147104	0.0610594	0	0	-0.282433	0.0544079	0.0511654	0.0875786	0.286469	0	0	-0.19697	0.0346036	-0.0930156	-0.0872513	-0.127432	-0.469887	0.741464	0.232845	0	0	0.16182	-0.255404	0.0212213	1.1655	0.210799	0	0
1.35	0.0674318	-0.0165262	-0.000858702	1.12053	0.9896	-0.275598	0.361035	-0.0105605	-0.240204	0.0833735	0.0626525	0	0	-0.297768	0.0472687	0.0505524	0.0866515	0.296215	0	0	-0.197278	0.041105	-0.0922957	-0.0893852	-0.125636	-0.475668	0.737497	0.240774	0	0	0.165886	-0.255068	0.0293355	1.17176	0.230167	0	0
1.36	0.0637131	-0.0190001	0.00038786	1.13273	0.987269	-0.274888	0.356432	0.00195045	-0.212465	0.034784	0.067609	0	0	-0.305411	0.0437356	0.0455815	0.0914849	0.306387	0	0	-0.194421	0.0443539	-0.0940375	-0.0897018	-0.124033	-0.480132	0.731729	0.242596	0	0	0.170331	-0.252731	0.0303296	1.17574	0.226895	0	0
1.37	0.0609003	-0.0219765	0.00139973	1.1452	0.984994	-0.274155	0.350174	0.0135206	-0.184793	0	0.0734043	0	0	-0.314107	0.0396857	0.0446459	0.0961941	0.313095	0	0	-0.191977	0.0482962	-0.0948957	-0.0903575	-0.122835	-0.484176	0.726787	0.24145	0	0	0.173992	-0.25144	0.0369516	1.17964	0.237807	0	0
1.38	0.0581386	-0.0237088	0.00255778	1.15759	0.982783	-0.273545	0.351111	0.0210224	-0.173973	0	0.0885144	0	0	-0.319623	0.0368167	0.0435598	0.106361	0.319973	0	0	-0.189895	0.0512412	-0.096098	-0.0907406	-0.122249	-0.485603	0.722917	0.239979	0	0	0.17786	-0.248986	0.0408914	1.18127	0.240976	0	0
1.39	0.0584189	-0.0268525	0.00680359	1.17	0.980729	-0.27307	0.366468	0.0276571	-0.162751	0	0.102233	0	0	-0.324155	0.0317963	0.0397028	0.124289	0.328687	0	0	-0.191043	0.0560605	-0.0986423	-0.0909225	-0.121291	-0.4907	0.718821	0.230823	0	0	0.181779	-0.245817	0.0442213	1.18177	0.239886	0	0
1.4	0.0541354	-0.0282951	0.00696043	1.18292	0.978847	-0.272499	0.360416	0.0316002	-0.169382	0	0.111257	0	0	-0.326775	0.0278718	0.0334833	0.138148	0.335942	0	0	-0.186615	0.0593972	-0.0993071	-0.0903065	-0.120865	-0.493397	0.713704	0.240896	0	0	0.182928	-0.241963	0.0452944	1.18049	0.22269	0	0
1.41	0.0542542	-0.0297831	0.00904548	1.19585	0.977254	-0.272076	0.364833	0.033858	-0.166642	0.00929256	0.113277	0	0	-0.334148	0.0241764	0.031802	0.151348	0.338767	0	0	-0.186772	0.0629649	-0.101604	-0.0893345	-0.120888	-0.494722	0.708765	0.23954	0	0	0.183421	-0.238055	0.0466754	1.17938	0.225959	0	0
